<svg id="Composant_16_6" data-name="Composant 16 – 6" xmlns="http://www.w3.org/2000/svg" width="165" height="98" viewBox="0 0 165 98">
  <rect id="Rectangle_192" data-name="Rectangle 192" width="11" height="10" transform="translate(154 88)" fill="#000054"/>
  <rect id="Rectangle_197" data-name="Rectangle 197" width="11" height="10" transform="translate(133 88)" fill="#000054"/>
  <rect id="Rectangle_198" data-name="Rectangle 198" width="11" height="10" transform="translate(110 88)" fill="#000054"/>
  <rect id="Rectangle_201" data-name="Rectangle 201" width="11" height="10" transform="translate(89 88)" fill="#000054"/>
  <rect id="Rectangle_204" data-name="Rectangle 204" width="10" height="10" transform="translate(66 88)" fill="#000054"/>
  <rect id="Rectangle_207" data-name="Rectangle 207" width="11" height="10" transform="translate(44 88)" fill="#000054"/>
  <rect id="Rectangle_210" data-name="Rectangle 210" width="11" height="10" transform="translate(22 88)" fill="#000054"/>
  <rect id="Rectangle_216" data-name="Rectangle 216" width="11" height="10" transform="translate(0 88)" fill="#000054"/>
  <rect id="Rectangle_194" data-name="Rectangle 194" width="11" height="11" transform="translate(154 66)" fill="#000054"/>
  <rect id="Rectangle_224" data-name="Rectangle 224" width="11" height="11" transform="translate(154 44)" fill="#000054"/>
  <rect id="Rectangle_239" data-name="Rectangle 239" width="11" height="11" transform="translate(154 21)" fill="#000054"/>
  <rect id="Rectangle_254" data-name="Rectangle 254" width="11" height="11" transform="translate(154)" fill="#000054"/>
  <rect id="Rectangle_196" data-name="Rectangle 196" width="11" height="11" transform="translate(133 66)" fill="#000054"/>
  <rect id="Rectangle_226" data-name="Rectangle 226" width="11" height="11" transform="translate(133 44)" fill="#000054"/>
  <rect id="Rectangle_241" data-name="Rectangle 241" width="11" height="11" transform="translate(133 21)" fill="#000054"/>
  <rect id="Rectangle_256" data-name="Rectangle 256" width="11" height="11" transform="translate(133)" fill="#000054"/>
  <rect id="Rectangle_200" data-name="Rectangle 200" width="11" height="11" transform="translate(110 66)" fill="#000054"/>
  <rect id="Rectangle_228" data-name="Rectangle 228" width="11" height="11" transform="translate(110 44)" fill="#000054"/>
  <rect id="Rectangle_243" data-name="Rectangle 243" width="11" height="11" transform="translate(110 21)" fill="#000054"/>
  <rect id="Rectangle_258" data-name="Rectangle 258" width="11" height="11" transform="translate(110)" fill="#000054"/>
  <rect id="Rectangle_203" data-name="Rectangle 203" width="11" height="11" transform="translate(89 66)" fill="#000054"/>
  <rect id="Rectangle_230" data-name="Rectangle 230" width="11" height="11" transform="translate(89 44)" fill="#000054"/>
  <rect id="Rectangle_245" data-name="Rectangle 245" width="11" height="11" transform="translate(89 21)" fill="#000054"/>
  <rect id="Rectangle_260" data-name="Rectangle 260" width="11" height="11" transform="translate(89)" fill="#000054"/>
  <rect id="Rectangle_206" data-name="Rectangle 206" width="10" height="11" transform="translate(66 66)" fill="#000054"/>
  <rect id="Rectangle_232" data-name="Rectangle 232" width="10" height="11" transform="translate(66 44)" fill="#000054"/>
  <rect id="Rectangle_247" data-name="Rectangle 247" width="10" height="11" transform="translate(66 21)" fill="#000054"/>
  <rect id="Rectangle_262" data-name="Rectangle 262" width="10" height="11" transform="translate(66)" fill="#000054"/>
  <rect id="Rectangle_209" data-name="Rectangle 209" width="11" height="11" transform="translate(44 66)" fill="#000054"/>
  <rect id="Rectangle_234" data-name="Rectangle 234" width="11" height="11" transform="translate(44 44)" fill="#000054"/>
  <rect id="Rectangle_249" data-name="Rectangle 249" width="11" height="11" transform="translate(44 21)" fill="#000054"/>
  <rect id="Rectangle_264" data-name="Rectangle 264" width="11" height="11" transform="translate(44)" fill="#000054"/>
  <rect id="Rectangle_212" data-name="Rectangle 212" width="11" height="11" transform="translate(22 66)" fill="#000054"/>
  <rect id="Rectangle_236" data-name="Rectangle 236" width="11" height="11" transform="translate(22 44)" fill="#000054"/>
  <rect id="Rectangle_251" data-name="Rectangle 251" width="11" height="11" transform="translate(22 21)" fill="#000054"/>
  <rect id="Rectangle_214" data-name="Rectangle 214" width="11" height="11" transform="translate(0 66)" fill="#000054"/>
  <rect id="Rectangle_238" data-name="Rectangle 238" width="11" height="11" transform="translate(0 44)" fill="#000054"/>
  <rect id="Rectangle_253" data-name="Rectangle 253" width="11" height="11" transform="translate(0 21)" fill="#000054"/>
</svg>
