<svg xmlns="http://www.w3.org/2000/svg" xmlns:xlink="http://www.w3.org/1999/xlink" width="30.75" height="30.75" viewBox="0 0 30.75 30.75">
  <defs>
    <clipPath id="clip-path">
      <rect id="Rectangle_316" data-name="Rectangle 316" width="30.75" height="30.75" fill="#000054"/>
    </clipPath>
  </defs>
  <g id="Groupe_389" data-name="Groupe 389" clip-path="url(#clip-path)">
    <path id="Tracé_4044" data-name="Tracé 4044" d="M29.85,6.145,24.611.9a3.078,3.078,0,0,0-4.354,0L18.315,2.848a16.635,16.635,0,0,0-2.934.186,14.942,14.942,0,0,0-2.939-.186L10.492.9A3.078,3.078,0,0,0,6.138.9L.9,6.145a3.078,3.078,0,0,0,0,4.35l1.86,1.86c-.419,3.133.613,5.692,3.431,8.514l5.83,5.7a1.425,1.425,0,0,0,.846.388l5.161.44c.082,0,.173.009.259.009a3.135,3.135,0,0,0,2.248-.932l5.791-5.787a2.745,2.745,0,0,0,.617-2.93,9.36,9.36,0,0,0,1.04-5.4l1.868-1.864a3.073,3.073,0,0,0,0-4.35M25.522,10.9a1.378,1.378,0,0,0-.375,1.256,6.333,6.333,0,0,1-.207,3.241L19.42,9.834A1.389,1.389,0,0,0,18.3,7.944a1.364,1.364,0,0,0-1.023.28c-1.774,1.381-3.426,1.9-4.945,1.536a1.408,1.408,0,0,0-1.3.367L9.383,11.776a.445.445,0,0,1-.578,0,.408.408,0,0,1-.117-.289A.415.415,0,0,1,8.8,11.2l2.662-2.662c1.692-1.692,2.542-2.412,4.061-2.719l.177-.026a15.945,15.945,0,0,1,3.15-.155,1.415,1.415,0,0,0,1.005-.4l2.365-2.369a.313.313,0,0,1,.427,0L27.886,8.1a.3.3,0,0,1,0,.427ZM14.639,20.359,10.591,16.4a2.818,2.818,0,0,0-2.606-.7l-1.929.492a5.793,5.793,0,0,1-.449-4.03,1.369,1.369,0,0,0-.38-1.26L2.867,8.531a.3.3,0,0,1,0-.427L8.106,2.865a.3.3,0,0,1,.423,0L10.9,5.239l.009.009c-.5.432-.971.9-1.4,1.325L6.846,9.234a3.177,3.177,0,0,0,0,4.505,3.251,3.251,0,0,0,4.5,0l1.139-1.131a7.92,7.92,0,0,0,4.742-1.04l7.116,7.168-5.782,5.778a.428.428,0,0,1-.311.112l-3.336-.285.384-1.066a2.753,2.753,0,0,0-.66-2.917M8.645,18.383l4.043,3.953-.272.747L8.153,18.9c-.108-.108-.207-.211-.306-.315Z" transform="translate(-0.002 0)" fill="#000054"/>
  </g>
</svg>
