<svg xmlns="http://www.w3.org/2000/svg" xmlns:xlink="http://www.w3.org/1999/xlink" width="39.576" height="30.75" viewBox="0 0 39.576 30.75">
  <defs>
    <clipPath id="clip-path">
      <rect id="Rectangle_319" data-name="Rectangle 319" width="39.576" height="30.75" fill="#000054"/>
    </clipPath>
  </defs>
  <g id="Groupe_395" data-name="Groupe 395" clip-path="url(#clip-path)">
    <path id="Tracé_4047" data-name="Tracé 4047" d="M39.3,7.52,34.158.581A1.423,1.423,0,0,0,33.013,0H6.562A1.439,1.439,0,0,0,5.417.581L.287,7.52A1.4,1.4,0,0,0,.359,9.307L18.73,30.263a1.415,1.415,0,0,0,2.136,0L39.227,9.307A1.431,1.431,0,0,0,39.3,7.52m-9.2-.57L32.8,3.541,35.331,6.95ZM11.393,9.789,16,22.848,4.559,9.789Zm1.162-3.514L9.849,2.85H16.2ZM23.379,2.85h6.358L27.031,6.275Zm-7.387,4.1L19.8,3.375,23.605,6.95Zm9.18,2.839L19.8,25.056,14.414,9.789Zm9.85,0L23.583,22.848l4.6-13.059ZM4.244,6.95,6.772,3.53,9.467,6.95Z" transform="translate(0.001 0.002)" fill="#000054"/>
  </g>
</svg>
