<svg xmlns="http://www.w3.org/2000/svg" xmlns:xlink="http://www.w3.org/1999/xlink" width="30.75" height="30.75" viewBox="0 0 30.75 30.75">
  <defs>
    <clipPath id="clip-path">
      <rect id="Rectangle_318" data-name="Rectangle 318" width="30.75" height="30.75" fill="#000054"/>
    </clipPath>
  </defs>
  <g id="Groupe_393" data-name="Groupe 393" clip-path="url(#clip-path)">
    <path id="Tracé_4046" data-name="Tracé 4046" d="M16.912,3.076A13.11,13.11,0,0,0,8.3,6.151l-.618-.613v-4A1.453,1.453,0,0,0,6.148,0,1.452,1.452,0,0,0,4.615,1.538v.925l-2-2a1.493,1.493,0,0,0-2.156,0,1.488,1.488,0,0,0,0,2.151l2,2H1.54A1.453,1.453,0,0,0,0,6.151,1.451,1.451,0,0,0,1.54,7.689h4l.613.613a13.136,13.136,0,0,0-3.07,8.613A13.837,13.837,0,1,0,16.912,3.076Zm0,24.6A10.7,10.7,0,0,1,6.148,16.915,10.5,10.5,0,0,1,8.3,10.458l2.151,2.151a8.274,8.274,0,0,0-1.231,4.307,7.689,7.689,0,1,0,7.689-7.689,8.243,8.243,0,0,0-4.3,1.231L10.455,8.3a10.541,10.541,0,0,1,6.458-2.151,10.764,10.764,0,1,1,0,21.529Zm-1.075-9.689a1.521,1.521,0,0,0,2.151-2.151l-3.076-3.076a4.282,4.282,0,0,1,2-.462A4.613,4.613,0,1,1,12.3,16.915a4.268,4.268,0,0,1,.462-2Z" transform="translate(-0.002 -0.001)" fill="#000054"/>
  </g>
</svg>
