<svg id="Groupe_360" data-name="Groupe 360" xmlns="http://www.w3.org/2000/svg" width="40" height="40.001" viewBox="0 0 40 40.001">
  <path id="Tracé_4003" data-name="Tracé 4003" d="M12.492,0H3.679A3.681,3.681,0,0,0,0,3.678V25.326H12.492Z" transform="translate(0)" fill="#fff"/>
  <rect id="Rectangle_274" data-name="Rectangle 274" width="11.339" height="10.231" transform="translate(14.33)" fill="#fff"/>
  <path id="Tracé_4004" data-name="Tracé 4004" d="M45.5,25.325V3.678A3.682,3.682,0,0,0,41.824,0H33.011V25.325Z" transform="translate(-5.502)" fill="#fff"/>
  <path id="Tracé_4005" data-name="Tracé 4005" d="M33.01,32.6V45.433h8.813A3.682,3.682,0,0,0,45.5,41.754V32.6Z" transform="translate(-5.502 -5.433)" fill="#fff"/>
  <path id="Tracé_4006" data-name="Tracé 4006" d="M0,32.6v9.158a3.681,3.681,0,0,0,3.678,3.678h8.813V32.6Z" transform="translate(0 -5.433)" fill="#fff"/>
  <path id="Tracé_4007" data-name="Tracé 4007" d="M28.536,27.739V14.483H17.2V42.415H28.536Z" transform="translate(-2.866 -2.414)" fill="#fff"/>
</svg>
