<svg xmlns="http://www.w3.org/2000/svg" xmlns:xlink="http://www.w3.org/1999/xlink" width="225" height="219" viewBox="0 0 225 219">
  <defs>
    <clipPath id="clip-path">
      <rect id="Rectangle_340" data-name="Rectangle 340" width="225" height="219" transform="translate(1372.562 2112.051)" fill="#fff"/>
    </clipPath>
  </defs>
  <g id="Groupe_de_masques_6" data-name="Groupe de masques 6" transform="translate(-1372.562 -2112.051)" clip-path="url(#clip-path)">
    <g id="logo-pickbeam-performances" transform="translate(1378.238 2112)">
      <path id="Tracé_4088" data-name="Tracé 4088" d="M90.647,100.3l-.2-.2,31.464-31.452L153.373,100.1l-.2.2,18,18L202.637,86.84,121.909,6.111l-12.868,12.88-18.6,18.584L41.181,86.84,72.644,118.3Z" transform="translate(-14.976 -6.111)" fill="#2c55ff"/>
      <rect id="Rectangle_382" data-name="Rectangle 382" width="44.213" height="44.213" transform="translate(75.679 94.19) rotate(-45)" fill="#3c82ff"/>
      <path id="Tracé_4089" data-name="Tracé 4089" d="M122.228,69.052,90.765,100.5l.2.2,31.262-31.262,31.262,31.262.2-.2Z" transform="translate(-15.295 -6.517)" fill="#3c82ff"/>
      <rect id="Rectangle_383" data-name="Rectangle 383" width="15.465" height="17.007" transform="translate(167.258 134.404) rotate(-45)" fill="#60adff"/>
      <rect id="Rectangle_384" data-name="Rectangle 384" width="15.465" height="17.007" transform="translate(190.229 157.364) rotate(-45)" fill="#60adff"/>
      <rect id="Rectangle_385" data-name="Rectangle 385" width="17.007" height="17.007" transform="translate(118.075 133.312) rotate(-45)" fill="#60adff"/>
      <rect id="Rectangle_386" data-name="Rectangle 386" width="17.007" height="17.007" transform="translate(143.207 158.466) rotate(-45)" fill="#60adff"/>
      <rect id="Rectangle_387" data-name="Rectangle 387" width="17.007" height="17.007" transform="translate(166.179 181.415) rotate(-45)" fill="#60adff"/>
      <rect id="Rectangle_388" data-name="Rectangle 388" width="17.007" height="17.007" transform="translate(69.972 133.313) rotate(-45)" fill="#60adff"/>
      <rect id="Rectangle_389" data-name="Rectangle 389" width="17.007" height="17.007" transform="translate(94.024 157.364) rotate(-45)" fill="#60adff"/>
      <rect id="Rectangle_390" data-name="Rectangle 390" width="17.007" height="17.007" transform="translate(119.156 182.506) rotate(-45)" fill="#60adff"/>
      <rect id="Rectangle_391" data-name="Rectangle 391" width="17.007" height="17.007" transform="translate(45.921 157.364) rotate(-45)" fill="#60adff"/>
      <rect id="Rectangle_392" data-name="Rectangle 392" width="17.007" height="17.007" transform="translate(24.052 179.231) rotate(-45)" fill="#60adff"/>
      <rect id="Rectangle_393" data-name="Rectangle 393" width="17.007" height="17.007" transform="translate(21.869 133.313) rotate(-45)" fill="#60adff"/>
      <rect id="Rectangle_394" data-name="Rectangle 394" width="17.007" height="17.007" transform="translate(0 155.18) rotate(-45)" fill="#60adff"/>
      <rect id="Rectangle_395" data-name="Rectangle 395" width="17.007" height="17.007" transform="translate(69.973 181.416) rotate(-45)" fill="#60adff"/>
      <rect id="Rectangle_396" data-name="Rectangle 396" width="17.007" height="17.007" transform="translate(95.105 206.558) rotate(-45)" fill="#60adff"/>
    </g>
  </g>
</svg>
