<svg xmlns="http://www.w3.org/2000/svg" xmlns:xlink="http://www.w3.org/1999/xlink" width="22.91" height="30.75" viewBox="0 0 22.91 30.75">
  <defs>
    <clipPath id="clip-path">
      <rect id="Rectangle_317" data-name="Rectangle 317" width="22.91" height="30.75" fill="#000054"/>
    </clipPath>
  </defs>
  <g id="Groupe_391" data-name="Groupe 391" clip-path="url(#clip-path)">
    <path id="Tracé_4045" data-name="Tracé 4045" d="M20.412,12.158l-.137-.218a12.683,12.683,0,0,0-.806-1.161,1.787,1.787,0,0,0-2.191-.482,1.816,1.816,0,0,0-.695.6,13.818,13.818,0,0,0-2.789-7.718A11.35,11.35,0,0,0,10.747.317a1.971,1.971,0,0,0-2.18.025A1.985,1.985,0,0,0,7.709,2.35c.284,1.638.264,4.9-3.068,8.332-3.874,4-5.4,8.377-4.29,12.343a10.976,10.976,0,0,0,7.977,7.368c.071.02.152.051.243.086,1.288.487,2.2.279,2.688-.619.482-.867-.015-1.547-.588-2.328-1.937-2.622-3.626-5.69-2.125-8.935a12.638,12.638,0,0,0,3.291,4.6c1.785,1.785,2.525,2.52,1.176,4.822a2.344,2.344,0,0,0-.238.325,1.407,1.407,0,0,0,.015,1.689,1.728,1.728,0,0,0,1.41.715,2.1,2.1,0,0,0,.553-.076,9.842,9.842,0,0,0,7.647-7.1,13.462,13.462,0,0,0-1.988-11.41m-8.879-7.3a11.115,11.115,0,0,1,2.251,6.76c0,3.413.644,5.314,2.028,5.984a2.176,2.176,0,0,0,2.322-.264,3.358,3.358,0,0,0,1.07-1.491,10.252,10.252,0,0,1,.477,6.962,7.214,7.214,0,0,1-3.306,4.331c.614-2.794-1.121-4.518-2.546-5.938-1.577-1.572-3.063-3.053-3.063-6.105a1.413,1.413,0,0,0-.872-1.308,1.514,1.514,0,0,0-.538-.106,1.384,1.384,0,0,0-.994.416c-2.591,2.586-4.8,6.81-1.572,12.657a7.674,7.674,0,0,1-3.722-4.493c-.832-2.956.446-6.369,3.6-9.614a12.842,12.842,0,0,0,3.965-8.834,10.088,10.088,0,0,1,.9,1.045" transform="translate(-0.001 0.003)" fill="#000054"/>
  </g>
</svg>
