<svg xmlns="http://www.w3.org/2000/svg" xmlns:xlink="http://www.w3.org/1999/xlink" width="197" height="191" viewBox="0 0 197 191">
  <defs>
    <clipPath id="clip-path">
      <rect id="Rectangle_338" data-name="Rectangle 338" width="197" height="191" transform="translate(341.025 2218.68)" fill="#fff"/>
    </clipPath>
  </defs>
  <g id="Groupe_de_masques_4" data-name="Groupe de masques 4" transform="translate(-341.025 -2218.68)" clip-path="url(#clip-path)">
    <g id="logo-pickbeam-startup" transform="translate(331.028 2206.811)">
      <path id="Tracé_4056" data-name="Tracé 4056" d="M180.965,11.869H85.211V56.261H157.69v69.522h44.392V11.869Z" fill="#2c55ff"/>
      <rect id="Rectangle_341" data-name="Rectangle 341" width="44.392" height="44.392" transform="translate(14.912 158.467)" fill="#b2e1ff"/>
      <rect id="Rectangle_342" data-name="Rectangle 342" width="15.43" height="16.973" transform="translate(14.912 118.014)" fill="#60adff"/>
      <rect id="Rectangle_343" data-name="Rectangle 343" width="15.43" height="16.973" transform="translate(14.912 82.535)" fill="#60adff"/>
      <rect id="Rectangle_344" data-name="Rectangle 344" width="15.43" height="16.973" transform="translate(14.912 50.132)" fill="#60adff"/>
      <rect id="Rectangle_345" data-name="Rectangle 345" width="16.973" height="16.973" transform="translate(47.305 118.014)" fill="#60adff"/>
      <rect id="Rectangle_346" data-name="Rectangle 346" width="16.973" height="16.973" transform="translate(47.305 82.535)" fill="#60adff"/>
      <rect id="Rectangle_347" data-name="Rectangle 347" width="16.973" height="16.973" transform="translate(47.305 50.132)" fill="#60adff"/>
      <rect id="Rectangle_348" data-name="Rectangle 348" width="16.973" height="16.973" transform="translate(81.251 151.95)" fill="#60adff"/>
      <rect id="Rectangle_349" data-name="Rectangle 349" width="16.973" height="16.973" transform="translate(81.251 185.896)" fill="#60adff"/>
      <rect id="Rectangle_350" data-name="Rectangle 350" width="16.973" height="16.973" transform="translate(81.251 118.014)" fill="#60adff"/>
      <rect id="Rectangle_351" data-name="Rectangle 351" width="16.973" height="16.973" transform="translate(81.251 82.535)" fill="#60adff"/>
      <rect id="Rectangle_352" data-name="Rectangle 352" width="16.973" height="16.973" transform="translate(115.187 151.95)" fill="#60adff"/>
      <rect id="Rectangle_353" data-name="Rectangle 353" width="16.973" height="16.973" transform="translate(146.047 151.95)" fill="#60adff"/>
      <rect id="Rectangle_354" data-name="Rectangle 354" width="16.973" height="16.973" transform="translate(115.187 185.896)" fill="#60adff"/>
      <rect id="Rectangle_355" data-name="Rectangle 355" width="16.973" height="16.973" transform="translate(146.047 185.896)" fill="#60adff"/>
      <rect id="Rectangle_356" data-name="Rectangle 356" width="16.973" height="16.973" transform="translate(115.187 118.014)" fill="#60adff"/>
      <rect id="Rectangle_357" data-name="Rectangle 357" width="16.973" height="16.973" transform="translate(115.187 82.535)" fill="#60adff"/>
    </g>
  </g>
</svg>
