<svg xmlns="http://www.w3.org/2000/svg" xmlns:xlink="http://www.w3.org/1999/xlink" width="197" height="191" viewBox="0 0 197 191">
  <defs>
    <clipPath id="clip-path">
      <rect id="Rectangle_339" data-name="Rectangle 339" width="197" height="191" transform="translate(1060 2126)" fill="#fff"/>
    </clipPath>
  </defs>
  <g id="Groupe_de_masques_5" data-name="Groupe de masques 5" transform="translate(-1060 -2126)" clip-path="url(#clip-path)">
    <g id="logo-pickbeam-boutique-enligne" transform="translate(1047.439 2114.13)">
      <path id="Tracé_4057" data-name="Tracé 4057" d="M117.708,156.469h-16.6v11.406H87.784v18.1h13.327v13.9h16.6v-13.9H131.2v-18.1H117.708Z" fill="#b2e1ff"/>
      <path id="Tracé_4058" data-name="Tracé 4058" d="M87.784,185.971H84.526v16.6h16.586v-2.7H87.784Z" fill="#60adff"/>
      <rect id="Rectangle_358" data-name="Rectangle 358" width="13.327" height="13.899" transform="translate(87.784 185.971)" fill="#60adff"/>
      <path id="Tracé_4059" data-name="Tracé 4059" d="M101.111,156.469v-5.19H84.526v16.6h3.259V156.469Z" fill="#60adff"/>
      <rect id="Rectangle_359" data-name="Rectangle 359" width="13.327" height="11.406" transform="translate(87.784 156.469)" fill="#60adff"/>
      <path id="Tracé_4060" data-name="Tracé 4060" d="M117.708,199.87v2.7h16.6v-16.6H131.2v13.9Z" fill="#60adff"/>
      <rect id="Rectangle_360" data-name="Rectangle 360" width="13.489" height="13.899" transform="translate(117.708 185.971)" fill="#60adff"/>
      <path id="Tracé_4061" data-name="Tracé 4061" d="M117.708,156.469H131.2v11.406H134.3v-16.6h-16.6Z" fill="#60adff"/>
      <rect id="Rectangle_361" data-name="Rectangle 361" width="13.489" height="11.406" transform="translate(117.708 156.469)" fill="#60adff"/>
      <path id="Tracé_4062" data-name="Tracé 4062" d="M118.118,86.414H101.532V99.072H87.784v18.1h13.748v12.658h16.586V117.168H131.2v-18.1H118.118Z" fill="#b2e1ff"/>
      <path id="Tracé_4063" data-name="Tracé 4063" d="M87.784,117.168H84.936v16.6h16.6v-3.939H87.784Z" fill="#60adff"/>
      <rect id="Rectangle_362" data-name="Rectangle 362" width="13.748" height="12.658" transform="translate(87.784 117.168)" fill="#60adff"/>
      <path id="Tracé_4064" data-name="Tracé 4064" d="M101.532,86.414V82.475h-16.6v16.6h2.849V86.414Z" fill="#60adff"/>
      <rect id="Rectangle_363" data-name="Rectangle 363" width="13.748" height="12.658" transform="translate(87.784 86.414)" fill="#60adff"/>
      <path id="Tracé_4065" data-name="Tracé 4065" d="M118.118,129.826v3.939h16.6v-16.6H131.2v12.658Z" fill="#60adff"/>
      <rect id="Rectangle_364" data-name="Rectangle 364" width="13.068" height="12.658" transform="translate(118.118 117.168)" fill="#60adff"/>
      <path id="Tracé_4066" data-name="Tracé 4066" d="M118.118,86.414H131.2V99.072h3.518v-16.6h-16.6Z" fill="#60adff"/>
      <rect id="Rectangle_365" data-name="Rectangle 365" width="13.068" height="12.658" transform="translate(118.118 86.414)" fill="#60adff"/>
      <path id="Tracé_4067" data-name="Tracé 4067" d="M33.8,61.649h16.6V49.272H62.976V31.164H50.394V18.248H33.8V31.164H19.575V49.272H33.8Z" fill="#b2e1ff"/>
      <path id="Tracé_4068" data-name="Tracé 4068" d="M33.8,61.649H19.575V49.272H17.2V65.857H33.8Z" fill="#60adff"/>
      <rect id="Rectangle_366" data-name="Rectangle 366" width="14.222" height="12.388" transform="translate(19.575 49.272)" fill="#60adff"/>
      <path id="Tracé_4069" data-name="Tracé 4069" d="M33.8,18.248v-3.68H17.2v16.6h2.374V18.248Z" fill="#60adff"/>
      <rect id="Rectangle_367" data-name="Rectangle 367" width="14.222" height="12.917" transform="translate(19.575 18.248)" fill="#60adff"/>
      <path id="Tracé_4070" data-name="Tracé 4070" d="M50.394,61.649v4.208h16.6V49.272H62.976V61.649Z" fill="#60adff"/>
      <rect id="Rectangle_368" data-name="Rectangle 368" width="12.593" height="12.388" transform="translate(50.394 49.272)" fill="#60adff"/>
      <path id="Tracé_4071" data-name="Tracé 4071" d="M62.976,31.164H66.99v-16.6h-16.6v3.68H62.976Z" fill="#60adff"/>
      <rect id="Rectangle_369" data-name="Rectangle 369" width="12.593" height="12.917" transform="translate(50.394 18.248)" fill="#60adff"/>
      <path id="Tracé_4072" data-name="Tracé 4072" d="M50.8,86.414H34.218V99.072H20.47v18.1H34.218v12.658H50.8V117.168H63.882v-18.1H50.8Z" fill="#b2e1ff"/>
      <path id="Tracé_4073" data-name="Tracé 4073" d="M20.47,117.168H17.622v16.6h16.6v-3.939H20.47Z" fill="#60adff"/>
      <rect id="Rectangle_370" data-name="Rectangle 370" width="13.748" height="12.658" transform="translate(20.47 117.168)" fill="#60adff"/>
      <path id="Tracé_4074" data-name="Tracé 4074" d="M34.218,86.414V82.475h-16.6v16.6H20.47V86.414Z" fill="#60adff"/>
      <rect id="Rectangle_371" data-name="Rectangle 371" width="13.748" height="12.658" transform="translate(20.47 86.414)" fill="#60adff"/>
      <path id="Tracé_4075" data-name="Tracé 4075" d="M50.8,129.826v3.939H67.4v-16.6H63.882v12.658Z" fill="#60adff"/>
      <rect id="Rectangle_372" data-name="Rectangle 372" width="13.068" height="12.658" transform="translate(50.804 117.168)" fill="#60adff"/>
      <path id="Tracé_4076" data-name="Tracé 4076" d="M50.8,86.414H63.882V99.072H67.4v-16.6H50.8Z" fill="#60adff"/>
      <rect id="Rectangle_373" data-name="Rectangle 373" width="13.068" height="12.658" transform="translate(50.804 86.414)" fill="#60adff"/>
      <path id="Tracé_4077" data-name="Tracé 4077" d="M50.8,155.53H34.218v12.647H20.47v18.107H34.218v12.647H50.8V186.284H63.882V168.177H50.8Z" fill="#b2e1ff"/>
      <path id="Tracé_4078" data-name="Tracé 4078" d="M20.47,186.284H17.622V202.87h16.6v-3.939H20.47Z" fill="#60adff"/>
      <rect id="Rectangle_374" data-name="Rectangle 374" width="13.748" height="12.658" transform="translate(20.47 186.284)" fill="#60adff"/>
      <path id="Tracé_4079" data-name="Tracé 4079" d="M34.218,155.53v-3.949h-16.6v16.6H20.47V155.53Z" fill="#60adff"/>
      <rect id="Rectangle_375" data-name="Rectangle 375" width="13.748" height="12.658" transform="translate(20.47 155.53)" fill="#60adff"/>
      <path id="Tracé_4080" data-name="Tracé 4080" d="M50.8,198.931v3.939H67.4V186.284H63.882v12.647Z" fill="#60adff"/>
      <rect id="Rectangle_376" data-name="Rectangle 376" width="13.068" height="12.658" transform="translate(50.804 186.284)" fill="#60adff"/>
      <path id="Tracé_4081" data-name="Tracé 4081" d="M50.8,155.53H63.882v12.647H67.4v-16.6H50.8Z" fill="#60adff"/>
      <rect id="Rectangle_377" data-name="Rectangle 377" width="13.068" height="12.658" transform="translate(50.804 155.53)" fill="#60adff"/>
      <path id="Tracé_4082" data-name="Tracé 4082" d="M185.917,156.469H169.332v11.406H155.994v18.1h13.338v13.9h16.586v-13.9h13.489v-18.1H185.917Z" fill="#b2e1ff"/>
      <path id="Tracé_4083" data-name="Tracé 4083" d="M155.994,185.971h-3.259v16.6h16.6v-2.7H155.994Z" fill="#60adff"/>
      <rect id="Rectangle_378" data-name="Rectangle 378" width="13.327" height="13.899" transform="translate(155.994 185.971)" fill="#60adff"/>
      <path id="Tracé_4084" data-name="Tracé 4084" d="M169.332,156.469v-5.19h-16.6v16.6h3.259V156.469Z" fill="#60adff"/>
      <rect id="Rectangle_379" data-name="Rectangle 379" width="13.327" height="11.406" transform="translate(155.994 156.469)" fill="#60adff"/>
      <path id="Tracé_4085" data-name="Tracé 4085" d="M185.917,199.87v2.7h16.6v-16.6h-3.108v13.9Z" fill="#60adff"/>
      <rect id="Rectangle_380" data-name="Rectangle 380" width="13.489" height="13.899" transform="translate(185.917 185.971)" fill="#60adff"/>
      <path id="Tracé_4086" data-name="Tracé 4086" d="M185.917,156.469h13.489v11.406h3.108v-16.6h-16.6Z" fill="#60adff"/>
      <rect id="Rectangle_381" data-name="Rectangle 381" width="13.489" height="11.406" transform="translate(185.917 156.469)" fill="#60adff"/>
      <path id="Tracé_4087" data-name="Tracé 4087" d="M204.64,12.161V11.87H93.255V55.282h68.264v68.264h43.4V12.161Z" fill="#2c55ff"/>
    </g>
  </g>
</svg>
