<svg xmlns="http://www.w3.org/2000/svg" width="40" height="39.999" viewBox="0 0 40 39.999">
  <g id="noun-website-4860917" transform="translate(32.725 -4.988)">
    <path id="Tracé_3938" data-name="Tracé 3938" d="M15.011,22.685c2.125,0,4.435-4.093,5.479-10.232H9.532C10.575,18.6,12.886,22.685,15.011,22.685Z" transform="translate(-27.736 19.511)" fill="#fff"/>
    <path id="Tracé_3939" data-name="Tracé 3939" d="M15.011,2.174c-2.125,0-4.435,4.093-5.479,10.232H20.489C19.445,6.258,17.135,2.174,15.01,2.174Z" transform="translate(-27.736 5.605)" fill="#fff"/>
    <path id="Tracé_3940" data-name="Tracé 3940" d="M3.36,11.9a20.013,20.013,0,0,0,.448,4.186H14.722c-.126-1.4-.2-2.791-.2-4.186s.073-2.791.2-4.186H3.809A20.013,20.013,0,0,0,3.36,11.9Z" transform="translate(-36.085 13.093)" fill="#fff"/>
    <path id="Tracé_3941" data-name="Tracé 3941" d="M9.291,11.9c0,1.459.078,2.852.206,4.186h11.68c.128-1.334.206-2.727.206-4.186s-.078-2.852-.206-4.186H9.5C9.369,9.043,9.291,10.437,9.291,11.9Z" transform="translate(-28.062 13.093)" fill="#fff"/>
    <path id="Tracé_3942" data-name="Tracé 3942" d="M30.578,12.454H20.159c-1.116,7.094-3.944,13.022-8.3,13.022A20.017,20.017,0,0,0,30.577,12.453Z" transform="translate(-24.584 19.511)" fill="#fff"/>
    <path id="Tracé_3943" data-name="Tracé 3943" d="M3.9,14.011H14.323C15.439,6.919,18.267.988,22.621.988A20.017,20.017,0,0,0,3.905,14.012Z" transform="translate(-35.349 4)" fill="#fff"/>
    <path id="Tracé_3944" data-name="Tracé 3944" d="M14.324,12.453H3.906A20.017,20.017,0,0,0,22.621,25.476c-4.354,0-7.183-5.929-8.3-13.022Z" transform="translate(-35.348 19.511)" fill="#fff"/>
    <path id="Tracé_3945" data-name="Tracé 3945" d="M11.86.989c4.354,0,7.183,5.931,8.3,13.022H30.577A20.017,20.017,0,0,0,11.861.988Z" transform="translate(-24.586 4)" fill="#fff"/>
    <path id="Tracé_3946" data-name="Tracé 3946" d="M15.531,7.709c.126,1.388.2,2.791.2,4.186s-.073,2.791-.2,4.186H26.445a19.768,19.768,0,0,0,0-8.372Z" transform="translate(-19.618 13.093)" fill="#fff"/>
  </g>
</svg>
