<svg xmlns="http://www.w3.org/2000/svg" xmlns:xlink="http://www.w3.org/1999/xlink" width="30.419" height="30.42" viewBox="0 0 30.419 30.42">
  <defs>
    <linearGradient id="linear-gradient" x1="1" x2="0" y2="1" gradientUnits="objectBoundingBox">
      <stop offset="0" stop-color="#fff"/>
      <stop offset="1" stop-color="#2c55ff"/>
    </linearGradient>
  </defs>
  <path id="Tracé_4017" data-name="Tracé 4017" d="M13.115.979a1.749,1.749,0,0,0,1.311,2.929L24.374,3.6,13.978,14a1.732,1.732,0,0,0-.508,1.226c0,1.709,0,3.613,0,5.445L1.894,19.624A1.734,1.734,0,0,0,.005,21.348L0,28.691a1.731,1.731,0,0,0,3.462,0l0-5.447,11.573,1.043a1.734,1.734,0,0,0,1.887-1.727c0-2.078,0-4.471.005-6.623l9.888-9.888-.308,9.947a1.73,1.73,0,1,0,3.461,0l.434-14.053h0a1.728,1.728,0,0,0-.026-.579c0-.022-.012-.041-.016-.062-.012-.045-.025-.09-.04-.134-.006-.02-.012-.041-.018-.06,0,0,0-.005,0-.008A1.583,1.583,0,0,0,30.17.809s0-.005,0-.008l0,0L30.148.775l-.5-.5c-.007,0-.013-.011-.021-.015l0,0-.008,0a1.587,1.587,0,0,0-.286-.133H29.32C29.293.106,29.265.1,29.238.091h0C29.2.077,29.156.064,29.114.053L29.049.039a1.735,1.735,0,0,0-.581-.026h0L14.429.446a1.67,1.67,0,0,0-1.314.533Z" transform="translate(0 0)" fill="url(#linear-gradient)"/>
</svg>
