<svg xmlns="http://www.w3.org/2000/svg" xmlns:xlink="http://www.w3.org/1999/xlink" width="45.957" height="45.957" viewBox="0 0 45.957 45.957">
  <defs>
    <linearGradient id="linear-gradient" x1="0.5" x2="0.5" y2="1" gradientUnits="objectBoundingBox">
      <stop offset="0" stop-color="#fff"/>
      <stop offset="1" stop-color="#2c55ff"/>
    </linearGradient>
  </defs>
  <path id="Tracé_4021" data-name="Tracé 4021" d="M11.688,0a1.492,1.492,0,0,0-1.509,1.22c-.811,4.371-2.968,6.812-5.217,9.272S.248,15.514.028,19.606c-.206,3.831.736,6.837,2.514,8.928A10.693,10.693,0,0,0,9.13,32.02a30.14,30.14,0,0,0,2.237,8.829,1.492,1.492,0,0,0,2.747-1.165,29.493,29.493,0,0,1-.245-21.475,1.492,1.492,0,0,0-.772-1.963,1.527,1.527,0,0,0-1.963.772A32.6,32.6,0,0,0,8.987,28.936,7.4,7.4,0,0,1,4.813,26.6C3.6,25.175,2.829,23.045,3,19.767,3.165,16.78,4.881,15,7.161,12.506A24.286,24.286,0,0,0,12.1,4.359a30.8,30.8,0,0,1,3.385,4.063c2.448,3.426,4.771,7.832,4.768,11.246,0,4.389-1.348,6.774-3.309,8.133a1.491,1.491,0,1,0,1.7,2.449c2.838-1.966,4.586-5.539,4.59-10.579,0-4.66-2.721-9.34-5.324-12.985A54.7,54.7,0,0,0,12.7.437,1.49,1.49,0,0,0,11.688,0Z" transform="translate(29.526 0.001) rotate(45)" fill="url(#linear-gradient)"/>
</svg>
