<svg xmlns="http://www.w3.org/2000/svg" xmlns:xlink="http://www.w3.org/1999/xlink" width="35.256" height="26.348" viewBox="0 0 35.256 26.348">
  <defs>
    <linearGradient id="linear-gradient" x1="0.884" x2="0.067" y2="1" gradientUnits="objectBoundingBox">
      <stop offset="0" stop-color="#fff"/>
      <stop offset="1" stop-color="#2c55ff"/>
    </linearGradient>
  </defs>
  <path id="Tracé_4018" data-name="Tracé 4018" d="M13.714,20.409a1.566,1.566,0,1,1-1.566-1.566,1.5,1.5,0,0,1,1.566,1.566M6.1,18.789a1.566,1.566,0,1,0,1.566,1.566A1.5,1.5,0,0,0,6.1,18.789m22.676,0a1.566,1.566,0,1,0,1.565,1.566,1.5,1.5,0,0,0-1.565-1.566M12.2,4.32a1.566,1.566,0,1,0,1.566,1.566A1.567,1.567,0,0,0,12.2,4.32m-6.047,0A1.566,1.566,0,1,0,7.721,5.886,1.5,1.5,0,0,0,6.155,4.32m22.676,0A1.566,1.566,0,1,0,30.4,5.886,1.5,1.5,0,0,0,28.831,4.32m6.425,1.619a5.922,5.922,0,0,1-5.939,5.939H5.993A5.939,5.939,0,1,1,5.993,0H29.317a5.922,5.922,0,0,1,5.939,5.939Zm-2.322,0a3.675,3.675,0,0,0-3.671-3.671H5.993a3.671,3.671,0,1,0,0,7.342H29.317a3.7,3.7,0,0,0,3.617-3.671ZM35.2,20.409a5.922,5.922,0,0,1-5.939,5.939H5.939a5.939,5.939,0,0,1,0-11.878H29.262A5.922,5.922,0,0,1,35.2,20.409Zm-2.321,0a3.675,3.675,0,0,0-3.671-3.671H5.94a3.671,3.671,0,0,0,0,7.342H29.263a3.7,3.7,0,0,0,3.617-3.671Z" transform="translate(0 0)" fill="url(#linear-gradient)"/>
</svg>
